<svg width="80" height="80" viewBox="0 0 80 80" fill="none" xmlns="http://www.w3.org/2000/svg">
<rect width="80" height="80" rx="8" fill="#EFE9FC"/>
<path d="M32.8438 50.0568L37.7521 53.8568C38.3854 54.4902 39.8104 54.8068 40.7604 54.8068H46.7771C48.6771 54.8068 50.7354 53.3818 51.2104 51.4818L55.0104 39.9235C55.8021 37.7068 54.3771 35.8068 52.0021 35.8068H45.6687C44.7187 35.8068 43.9271 35.0152 44.0854 33.9068L44.8771 28.8402C45.1937 27.4152 44.2437 25.8318 42.8187 25.3568C41.5521 24.8818 39.9687 25.5152 39.3354 26.4652L32.8438 36.1235" stroke="#6125DF" stroke-width="1.5" stroke-miterlimit="10"/>
<path d="M24.7656 50.0563V34.5396C24.7656 32.3229 25.7156 31.5312 27.9323 31.5312H29.5156C31.7323 31.5312 32.6823 32.3229 32.6823 34.5396V50.0563C32.6823 52.2729 31.7323 53.0646 29.5156 53.0646H27.9323C25.7156 53.0646 24.7656 52.2729 24.7656 50.0563Z" stroke="#6125DF" stroke-width="1.5" stroke-linecap="round" stroke-linejoin="round"/>
</svg>
