<svg width="80" height="80" viewBox="0 0 80 80" fill="none" xmlns="http://www.w3.org/2000/svg">
<rect width="80" height="80" rx="8" fill="#EFE9FC"/>
<path d="M43.8633 51.1606L46.2699 53.5672L51.0833 48.7539" stroke="#6125DF" stroke-width="1.5" stroke-linecap="round" stroke-linejoin="round"/>
<path d="M40.2521 38.2082C40.0938 38.1924 39.9038 38.1924 39.7296 38.2082C35.9613 38.0816 32.9688 34.9941 32.9688 31.1941C32.953 27.3149 36.1038 24.1641 39.983 24.1641C43.8621 24.1641 47.013 27.3149 47.013 31.1941C47.013 34.9941 44.0046 38.0816 40.2521 38.2082Z" stroke="#6125DF" stroke-width="1.5" stroke-linecap="round" stroke-linejoin="round"/>
<path d="M39.9859 55.5314C37.1043 55.5314 34.2384 54.803 32.0534 53.3464C28.2218 50.7814 28.2218 46.6014 32.0534 44.0522C36.4076 41.1389 43.5484 41.1389 47.9026 44.0522" stroke="#6125DF" stroke-width="1.5" stroke-linecap="round" stroke-linejoin="round"/>
</svg>
