<svg width="26" height="26" viewBox="0 0 26 26" fill="none" xmlns="http://www.w3.org/2000/svg">
<path d="M12.8484 3.05293C16.2563 3.05293 16.6604 3.06543 18.007 3.12585C21.4659 3.28001 23.0816 4.8873 23.239 8.2498C23.3007 9.56751 23.3124 9.96335 23.3124 13.3008C23.3124 16.6394 23.2996 17.0342 23.239 18.3519C23.0805 21.7113 21.4691 23.3217 18.007 23.4758C16.6604 23.5363 16.2584 23.5488 12.8484 23.5488C9.44051 23.5488 9.03633 23.5363 7.69084 23.4758C4.2234 23.3206 2.61625 21.7061 2.45883 18.3508C2.39714 17.0331 2.38438 16.6383 2.38438 13.2998C2.38438 9.9623 2.39821 9.56751 2.45883 8.24876C2.61732 4.8873 4.22872 3.27897 7.69084 3.1248C9.0374 3.06543 9.44051 3.05293 12.8484 3.05293V3.05293ZM12.8484 0.799805C9.38201 0.799805 8.94805 0.814388 7.5866 0.874805C2.9513 1.08314 0.37518 3.60189 0.162453 8.14564C0.0996992 9.48001 0.0848083 9.90501 0.0848083 13.2998C0.0848083 16.6946 0.0996992 17.1206 0.16139 18.454C0.374116 22.9936 2.94598 25.5165 7.58554 25.7248C8.94805 25.7852 9.38201 25.7998 12.8484 25.7998C16.3148 25.7998 16.7498 25.7852 18.1112 25.7248C22.7423 25.5165 25.3248 22.9977 25.5343 18.454C25.5971 17.1206 25.612 16.6946 25.612 13.2998C25.612 9.90501 25.5971 9.48001 25.5354 8.14668C25.3269 3.61126 22.7519 1.08418 18.1123 0.875846C16.7498 0.814388 16.3148 0.799805 12.8484 0.799805V0.799805ZM12.8484 6.88105C9.22885 6.88105 6.29429 9.75501 6.29429 13.2998C6.29429 16.8446 9.22885 19.7196 12.8484 19.7196C16.4679 19.7196 19.4025 16.8456 19.4025 13.2998C19.4025 9.75501 16.4679 6.88105 12.8484 6.88105ZM12.8484 17.4665C10.4988 17.4665 8.59386 15.6019 8.59386 13.2998C8.59386 10.9988 10.4988 9.13314 12.8484 9.13314C15.198 9.13314 17.1029 10.9988 17.1029 13.2998C17.1029 15.6019 15.198 17.4665 12.8484 17.4665ZM19.662 5.12793C18.8154 5.12793 18.1293 5.7998 18.1293 6.62793C18.1293 7.45605 18.8154 8.12793 19.662 8.12793C20.5076 8.12793 21.1926 7.45605 21.1926 6.62793C21.1926 5.7998 20.5076 5.12793 19.662 5.12793Z" fill="#ADBAC0"/>
</svg>
