<svg width="32" height="32" viewBox="0 0 32 32" fill="none" xmlns="http://www.w3.org/2000/svg">
<path d="M11.3333 25.2933H10.6667C5.33334 25.2933 2.66667 23.9599 2.66667 17.2933V10.6266C2.66667 5.29325 5.33334 2.62659 10.6667 2.62659H21.3333C26.6667 2.62659 29.3333 5.29325 29.3333 10.6266V17.2933C29.3333 22.6266 26.6667 25.2933 21.3333 25.2933H20.6667C20.2533 25.2933 19.8534 25.4933 19.6 25.8266L17.6 28.4933C16.72 29.6666 15.28 29.6666 14.4 28.4933L12.4 25.8266C12.1867 25.5333 11.7067 25.2933 11.3333 25.2933Z" stroke="#3C50E0" stroke-width="1.5" stroke-miterlimit="10" stroke-linecap="round" stroke-linejoin="round"/>
<path d="M10.6419 12.5525V15.4414C10.6419 16.8859 11.3641 17.6081 12.8085 17.6081H13.8413C14.1085 17.6081 14.3758 17.6875 14.6069 17.8248L16.7158 19.1464C18.5358 20.2875 20.0308 19.457 20.0308 17.312V10.682C20.0308 8.52976 18.5358 7.70643 16.7158 8.84754L14.6069 10.1692C14.3758 10.3064 14.1085 10.3859 13.8413 10.3859H12.8085C11.3641 10.3859 10.6419 11.1081 10.6419 12.5525Z" stroke="#3C50E0" stroke-width="1.5"/>
</svg>
