<svg width="1440" height="825" viewBox="0 0 1440 825" fill="none" xmlns="http://www.w3.org/2000/svg">
<mask id="mask0_52_2748" style="mask-type:alpha" maskUnits="userSpaceOnUse" x="0" y="0" width="1440" height="825">
<rect width="1440" height="825" fill="#00016D"/>
</mask>
<g mask="url(#mask0_52_2748)">
<path d="M1658 65C1658 236.761 1521.89 376 1354 376C1186.11 376 1050 236.761 1050 65C1050 -106.761 1186.11 -246 1354 -246C1521.89 -246 1658 -106.761 1658 65ZM1128.17 65C1128.17 192.596 1229.28 296.033 1354 296.033C1478.72 296.033 1579.83 192.596 1579.83 65C1579.83 -62.5959 1478.72 -166.033 1354 -166.033C1229.28 -166.033 1128.17 -62.5959 1128.17 65Z" fill="url(#paint0_linear_52_2748)"/>
<path d="M1421 669C1421 840.761 1284.89 980 1117 980C949.105 980 813 840.761 813 669C813 497.239 949.105 358 1117 358C1284.89 358 1421 497.239 1421 669ZM891.167 669C891.167 796.596 992.276 900.033 1117 900.033C1241.72 900.033 1342.83 796.596 1342.83 669C1342.83 541.404 1241.72 437.967 1117 437.967C992.276 437.967 891.167 541.404 891.167 669Z" fill="url(#paint1_linear_52_2748)"/>
</g>
<defs>
<linearGradient id="paint0_linear_52_2748" x1="1354" y1="-246" x2="1354" y2="376" gradientUnits="userSpaceOnUse">
<stop stop-color="#038BC6"/>
<stop offset="1" stop-color="#C4C4C4" stop-opacity="0"/>
</linearGradient>
<linearGradient id="paint1_linear_52_2748" x1="1597" y1="493" x2="1024" y2="980" gradientUnits="userSpaceOnUse">
<stop stop-color="#A2E2FF"/>
<stop offset="1" stop-color="#DBF4FF" stop-opacity="0"/>
</linearGradient>
</defs>
</svg>
