<svg width="30" height="23" viewBox="0 0 30 23" fill="none" xmlns="http://www.w3.org/2000/svg">
<path d="M28.4453 2.78922C28.0021 2.97754 27.5464 3.13649 27.0808 3.26553C27.6321 2.66828 28.0524 1.96554 28.3089 1.19653C28.3664 1.02415 28.3068 0.835476 28.1589 0.72274C28.0112 0.609917 27.806 0.596403 27.6433 0.688736C26.6545 1.25058 25.5876 1.65436 24.469 1.89047C23.3421 0.835651 21.8117 0.235352 20.2295 0.235352C16.8898 0.235352 14.1727 2.83822 14.1727 6.03754C14.1727 6.28952 14.1893 6.5401 14.2223 6.7872C10.078 6.43861 6.22511 4.48723 3.57936 1.37814C3.48507 1.26732 3.33981 1.2076 3.1911 1.21902C3.04229 1.23018 2.90859 1.31057 2.83342 1.43412C2.2968 2.31621 2.01311 3.32508 2.01311 4.35156C2.01311 5.74964 2.53416 7.07614 3.45458 8.11265C3.17472 8.01979 2.90313 7.90374 2.64393 7.7659C2.50477 7.6917 2.33494 7.69283 2.19669 7.76878C2.05835 7.84472 1.97161 7.98439 1.96797 8.13706C1.96733 8.16278 1.96733 8.1885 1.96733 8.21457C1.96733 10.3015 3.13977 12.1803 4.93227 13.2043C4.77828 13.1896 4.62437 13.1682 4.47147 13.1403C4.31384 13.1114 4.15174 13.1643 4.04544 13.2795C3.93895 13.3946 3.90373 13.555 3.95279 13.7015C4.61627 15.6859 6.3245 17.1456 8.38959 17.5906C6.67681 18.6183 4.71812 19.1566 2.66195 19.1566C2.23291 19.1566 1.80142 19.1324 1.37912 19.0846C1.16933 19.0607 0.968737 19.1793 0.897292 19.3705C0.825846 19.5617 0.901569 19.7748 1.08005 19.8844C3.72152 21.5069 6.77583 22.3645 9.91261 22.3645C16.0791 22.3645 19.9367 19.5788 22.0869 17.2419C24.7681 14.3279 26.3059 10.4709 26.3059 6.65999C26.3059 6.50078 26.3034 6.34 26.2983 6.17975C27.3561 5.41623 28.2669 4.4922 29.008 3.43014C29.1206 3.26884 29.1084 3.05567 28.978 2.90718C28.8477 2.75861 28.6307 2.71057 28.4453 2.78922Z" fill="#ADBAC0"/>
</svg>
