<svg width="26" height="26" viewBox="0 0 26 26" fill="none" xmlns="http://www.w3.org/2000/svg">
<path d="M3.61664 6.81939C5.27607 6.81939 6.62131 5.47186 6.62131 3.8096C6.62131 2.14734 5.27607 0.799805 3.61664 0.799805C1.9572 0.799805 0.611969 2.14734 0.611969 3.8096C0.611969 5.47186 1.9572 6.81939 3.61664 6.81939Z" fill="#ADBAC0"/>
<path d="M9.45844 9.10012V25.7984H14.6342V17.5408C14.6342 15.3618 15.0434 13.2517 17.7405 13.2517C20.4005 13.2517 20.4334 15.7429 20.4334 17.6783V25.7998H25.612V16.6425C25.612 12.1443 24.6452 8.68745 19.3966 8.68745C16.8767 8.68745 15.1876 10.0727 14.4969 11.3836H14.4269V9.10012H9.45844ZM1.02394 9.10012H6.20796V25.7984H1.02394V9.10012Z" fill="#ADBAC0"/>
</svg>
