<svg width="24" height="24" viewBox="0 0 24 24" fill="none" xmlns="http://www.w3.org/2000/svg">
<path d="M22 11.65H16.2C14.67 11.65 13.62 10.49 13.62 9.07001V5.84998C13.62 4.42998 14.67 3.27002 16.2 3.27002H19.42C20.84 3.27002 22 4.42998 22 5.84998V11.65Z" stroke="#B3B4BB" stroke-width="1.5" stroke-linecap="round" stroke-linejoin="round"/>
<path d="M22 11.6499C22 17.6999 20.87 18.6998 17.47 20.7198" stroke="#B3B4BB" stroke-width="1.5" stroke-linecap="round" stroke-linejoin="round"/>
<path d="M10.37 11.65H4.56999C3.03999 11.65 1.98999 10.49 1.98999 9.07001V5.84998C1.98999 4.42998 3.03999 3.27002 4.56999 3.27002H7.79999C9.21999 3.27002 10.38 4.42998 10.38 5.84998V11.65" stroke="#B3B4BB" stroke-width="1.5" stroke-linecap="round" stroke-linejoin="round"/>
<path d="M10.37 11.6499C10.37 17.6999 9.23997 18.6998 5.83997 20.7198" stroke="#B3B4BB" stroke-width="1.5" stroke-linecap="round" stroke-linejoin="round"/>
</svg>
